# xmcd
#
# Track frame offsets:
#	150
#	17911
#	32360
#	46162
#	66944
#	88707
#	104644
#	115309
#	136292
#	150839
#	165251
#	187586
#	205684
#	222148
#
# Disc length: 3221
#
# Revision: 2
# Processed by: cddbd v1.5.1PL0 Copyright (c) Steve Scherf et al.
# Submitted via: audiograbber 1.83.01
# Normalized: r1:DSETVAR1,TDELIM( - ),TSWAP
#
DISCID=a90c930e
DTITLE=Various Artist - Black party grooves CD2
DYEAR=2005
DGENRE=Soul
TTITLE0=Labelle - Lady marmelade
TTITLE1=Wild Cherry - Play that funky music
TTITLE2=Sly and The family stone - Family affair
TTITLE3=Heatwave - Boogie night
TTITLE4=Luther Vandross - Ain't no stoopin' us now
TTITLE5=The Jackson - Blame it on boogie
TTITLE6=Arethe Franklin - Soulville
TTITLE7=Earth, Wind and Fire - Fantasy
TTITLE8=Labelle (featuring Patti Labelle) - Are you lonely?
TTITLE9=The O'Jays - Now that we found love
TTITLE10=George Duke - Reach out
TTITLE11=Khemistry - Can you feel my love
TTITLE12=The Emotions - Best of my love
TTITLE13=Mother's finest - Baby love-
EXTD=
EXTT0=
EXTT1=
EXTT2=
EXTT3=
EXTT4=
EXTT5=
EXTT6=
EXTT7=
EXTT8=
EXTT9=
EXTT10=
EXTT11=
EXTT12=
EXTT13=
PLAYORDER=
